<?xml version="1.0" standalone="no"?>
<!DOCTYPE svg PUBLIC "-//W3C//DTD SVG 20010904//EN"
 "http://www.w3.org/TR/2001/REC-SVG-20010904/DTD/svg10.dtd">
<svg version="1.0" xmlns="http://www.w3.org/2000/svg"
 width="750.000000pt" height="750.000000pt" viewBox="0 0 750.000000 750.000000"
 preserveAspectRatio="xMidYMid meet">
<g transform="translate(0.000000,750.000000) scale(0.100000,-0.100000)"
fill="#000000" stroke="none">
<path d="M2307 7486 c-4 -9 -27 -17 -64 -20 -97 -10 -291 -51 -368 -77 -16 -6
-43 -14 -60 -19 -46 -13 -161 -54 -210 -75 -61 -26 -170 -77 -185 -86 -8 -5
-37 -20 -65 -34 -27 -15 -62 -34 -77 -43 -15 -9 -55 -35 -90 -56 -64 -40 -248
-176 -277 -205 -9 -9 -49 -45 -88 -80 -76 -66 -227 -234 -305 -336 -51 -68
-131 -184 -141 -205 -4 -8 -16 -28 -27 -45 -10 -16 -31 -52 -45 -80 -14 -27
-30 -57 -35 -65 -8 -15 -60 -127 -85 -185 -21 -48 -42 -106 -61 -165 -9 -30
-22 -71 -29 -90 -14 -40 -34 -117 -45 -175 -25 -129 -30 -157 -40 -223 -13
-95 -13 -601 1 -694 23 -160 55 -308 85 -393 8 -23 14 -50 14 -60 0 -11 7 -29
15 -39 8 -11 15 -29 15 -41 0 -12 7 -30 15 -41 8 -10 15 -27 15 -36 0 -9 6
-29 14 -45 8 -15 44 -89 81 -163 36 -74 75 -148 85 -165 11 -16 23 -37 27 -45
4 -8 27 -44 51 -80 134 -195 289 -370 457 -516 70 -61 270 -214 279 -214 2 0
31 -17 63 -38 67 -45 75 -49 220 -120 59 -30 117 -58 127 -64 11 -6 31 -14 45
-18 14 -5 51 -18 81 -30 30 -12 69 -25 85 -30 17 -5 44 -13 60 -18 89 -30 210
-57 390 -89 144 -25 598 -25 740 0 269 48 466 103 650 183 49 21 238 114 260
127 10 7 37 23 60 37 22 13 49 30 60 37 11 7 27 15 35 19 8 4 53 36 99 71 47
35 89 62 94 60 4 -1 148 -142 318 -312 294 -294 308 -310 294 -329 -45 -65
-57 -101 -58 -176 0 -61 4 -86 23 -125 18 -37 230 -254 936 -961 l914 -914 81
0 81 0 329 330 c182 182 334 328 339 325 6 -4 10 17 10 49 0 33 -4 56 -11 56
-5 0 -427 416 -937 925 -585 584 -943 935 -972 951 -37 21 -57 25 -126 25 -82
0 -113 -10 -182 -58 -23 -16 -26 -13 -328 288 -176 176 -304 311 -304 322 0
10 34 63 75 117 41 54 75 101 75 104 0 3 13 24 29 48 66 100 175 314 225 446
42 109 49 131 92 282 15 54 37 160 61 295 25 143 25 596 0 740 -32 181 -59
301 -89 390 -5 17 -13 44 -18 60 -5 17 -18 55 -30 85 -12 30 -25 67 -30 81 -4
14 -12 34 -18 45 -6 10 -32 64 -58 119 -27 55 -70 136 -97 180 -26 44 -54 89
-60 100 -7 10 -33 49 -60 85 -138 190 -265 330 -422 466 -102 88 -286 224
-335 247 -8 4 -28 16 -45 27 -29 19 -271 139 -330 164 -16 7 -47 21 -68 30
-21 9 -44 16 -52 16 -8 0 -29 6 -47 14 -95 40 -337 98 -460 110 -66 7 -90 15
-82 27 3 5 -119 9 -289 9 -246 0 -296 -2 -300 -14z m518 -557 c108 -12 229
-34 285 -51 19 -6 51 -15 70 -19 34 -7 62 -16 145 -47 80 -29 285 -128 340
-163 17 -10 37 -22 45 -26 44 -20 263 -196 343 -276 126 -125 279 -319 318
-402 5 -11 18 -33 29 -50 32 -50 103 -199 135 -285 9 -25 23 -60 31 -78 8 -18
14 -40 14 -50 0 -9 6 -34 14 -57 17 -50 40 -160 61 -290 28 -183 17 -475 -26
-665 -6 -25 -14 -63 -18 -85 -7 -40 -11 -52 -52 -175 -35 -104 -49 -137 -106
-255 -19 -38 -43 -83 -54 -100 -10 -16 -23 -39 -29 -50 -41 -82 -206 -289
-316 -397 -111 -109 -301 -259 -379 -298 -11 -6 -33 -19 -50 -29 -29 -18 -136
-73 -200 -101 -129 -58 -349 -123 -475 -141 -30 -4 -86 -12 -125 -18 -157 -24
-491 -6 -650 34 -27 7 -70 18 -95 24 -25 7 -61 16 -80 21 -19 4 -60 18 -90 30
-30 12 -67 25 -81 30 -14 4 -34 12 -45 18 -10 6 -53 27 -94 47 -347 167 -674
469 -866 800 -37 63 -131 262 -156 330 -31 83 -40 111 -47 145 -4 19 -13 51
-19 70 -17 56 -39 177 -51 285 -30 268 3 603 81 830 5 17 14 44 18 60 11 40
38 111 49 133 5 9 33 64 61 122 28 58 57 114 63 125 172 288 444 560 732 732
11 6 67 35 125 63 58 28 113 56 122 61 22 11 93 38 133 49 17 4 44 13 60 18
226 78 563 111 830 81z"/>
</g>
</svg>
